<svg id="Слой_1" data-name="Слой 1" xmlns="http://www.w3.org/2000/svg" viewBox="0 0 410.67 128.61"><defs><style>.cls-1{fill:#36ad58;}</style></defs><title>cpool-2</title><path class="cls-1" d="M153.56,371.63c-13.37,9.33-27.64,14.09-43.48,12.9-11.66-.88-22.47-4.46-30.58-13.34-3-3.32-5.13-7.6-7.15-11.69-1.07-2.16-2-2.55-4-1.59a56.76,56.76,0,0,1-8.84,3.57c2.34-1.78,4.59-3.7,7-5.31s3.76-3.22,3.48-6.8c-.88-11.07.26-22,6-31.88,5-8.68,12.92-13.66,22.45-16.13a71.5,71.5,0,0,1,38.22.67c2.31.66,5.51.78,6.64,2.35,1.23,1.72.6,4.82.66,7.32.07,2.92,0,5.85,0,8.92-4.41-1-8.42-2.18-12.52-2.75-13.81-1.91-26.15,2-33.14,15.28a17.63,17.63,0,0,0-1.65,5.68c11.32-3.92,22.58-6.44,34.67-6-5.7,1.69-11.2,3-16.43,5-6,2.3-11.82,5.17-17.61,8-.68.33-1.12,2.18-.91,3.15,1.35,6.14,5.35,10.2,11,12.48,11.4,4.59,22.21,2.31,32.51-3.5a62.8,62.8,0,0,0,19.35-17.27c1.46-1.94,3.18-3.67,4.81-5.48,2.06-2.29,2-3.29-.58-4.83a78.24,78.24,0,0,0-7-3.92,3.87,3.87,0,0,1-2.54-4c0-9.07-.28-18.13-.46-27.2,0-.83-.13-1.65-.22-2.78a18.18,18.18,0,0,1,2.13-.25c6.14,0,12.28,0,18.41,0,1.8,0,2.52.5,2.59,2.41a77.91,77.91,0,0,0,.92,8,6.41,6.41,0,0,0,.78,1.68,12,12,0,0,0,1.85-1.11c3.07-2.68,5.77-6,9.22-8,9.79-5.76,20.3-6.75,30.92-2.46,12.53,5.06,19.39,15.06,22.57,27.74,3.47,13.79,2.75,27.46-3.85,40.17-7.74,14.93-20.37,22.4-37.34,21.47-7.2-.4-13.68-3.08-18.56-8.81-.42-.49-1.23-.63-1.87-.94a9.33,9.33,0,0,0-.61,2.3q-.06,19,0,38.09c0,3.8,0,3.8-3.87,3.8-6.47,0-13-.09-19.42,0-2.39.05-3.19-.62-3.16-3.1.11-12.7.06-25.39,0-38.09A31.07,31.07,0,0,0,153.56,371.63Zm26.33-35,.57.07c0,2.69,0,5.38,0,8.06a17.7,17.7,0,0,0,.39,2.22c1.17,7.83,6.57,13.66,13.69,14.76,8.61,1.33,16.11-2.13,19.61-9.4,4.8-10,4.62-20.24.89-30.49a17.41,17.41,0,0,0-16.74-11.38c-7.51.08-14.42,4.79-16.45,12.08C180.62,327.07,180.51,331.92,179.89,336.62Z" transform="translate(-59.56 -287.86)"/><path class="cls-1" d="M249,337.9v-.26c0-26.33,20.26-47.68,47.27-47.68s47,21.09,47,47.42v.26C343.3,364,323,385.32,296,385.32S249,364.23,249,337.9Zm69.53,0v-.26c0-13.23-9.13-24.76-22.51-24.76s-22.14,11.27-22.14,24.5v.26c0,13.23,9.13,24.76,22.39,24.76S318.54,351.13,318.54,337.9Z" transform="translate(-59.56 -287.86)"/><path class="cls-1" d="M346.68,337.9v-.26c0-26.33,20.26-47.68,47.27-47.68s47,21.09,47,47.42v.26c0,26.33-20.26,47.68-47.27,47.68S346.68,364.23,346.68,337.9Zm69.53,0v-.26c0-13.23-9.13-24.76-22.51-24.76s-22.14,11.27-22.14,24.5v.26c0,13.23,9.13,24.76,22.39,24.76S416.21,351.13,416.21,337.9Z" transform="translate(-59.56 -287.86)"/><path class="cls-1" d="M446.47,287.86h23.76v95.63H446.47Z" transform="translate(-59.56 -287.86)"/></svg>